<svg xmlns="http://www.w3.org/2000/svg" width="600" height="300" viewBox="0 0 600 300">
  <!-- 背景 -->
  <rect width="600" height="300" fill="#1a1a2e" opacity="0.85"/>
  
  <!-- 模糊纹理 -->
  <filter id="noise" x="0%" y="0%" width="100%" height="100%">
    <feTurbulence type="fractalNoise" baseFrequency="0.65" numOctaves="3" stitchTiles="stitch"/>
    <feColorMatrix type="matrix" values="1 0 0 0 0 0 1 0 0 0 0 0 1 0 0 0 0 0 0.1 0"/>
  </filter>
  <rect width="600" height="300" filter="url(#noise)"/>
  
  <!-- 顶部标题 -->
  <text x="300" y="60" font-family="Arial, sans-serif" font-size="48" font-weight="bold" fill="#ff2d55" text-anchor="middle">晋级助力专区</text>
  
  <!-- 底部标题 -->
  <text x="300" y="240" font-family="Arial, sans-serif" font-size="64" font-weight="bold" fill="#ff2d55" text-anchor="middle">晋级赛</text>
  
  <!-- 金色盾牌1 -->
  <g transform="translate(400, 150) scale(0.8)">
    <path d="M0,-70 L60,-20 L60,20 L0,70 L-60,20 L-60,-20 Z" fill="#e5c100" stroke="#8b7300" stroke-width="4"/>
    <path d="M0,-60 L50,-15 L50,15 L0,60 L-50,15 L-50,-15 Z" fill="#f7d794"/>
    <!-- 盾牌上的星星 -->
    <polygon points="0,-30 5,-10 25,-10 10,5 15,25 0,15 -15,25 -10,5 -25,-10 -5,-10" fill="#ffd700"/>
    <!-- 盾牌边缘装饰 -->
    <path d="M-60,20 L-60,15 M60,20 L60,15 M-50,15 L-45,10 M50,15 L45,10 M-40,10 L-35,5 M40,10 L35,5 M-30,5 L-25,0 M30,5 L25,0 M-20,0 L-15,-5 M20,0 L15,-5 M-10,-5 L-5,-10 M10,-5 L5,-10 M0,-70 M-60,-20 L-55,-25 M60,-20 L55,-25" stroke="#8b7300" stroke-width="2"/>
  </g>
  
  <!-- 金色盾牌2 -->
  <g transform="translate(520, 180) scale(0.5)">
    <path d="M0,-70 L60,-20 L60,20 L0,70 L-60,20 L-60,-20 Z" fill="#e5c100" stroke="#8b7300" stroke-width="4"/>
    <path d="M0,-60 L50,-15 L50,15 L0,60 L-50,15 L-50,-15 Z" fill="#f7d794"/>
    <!-- 盾牌上的星星 -->
    <polygon points="0,-30 5,-10 25,-10 10,5 15,25 0,15 -15,25 -10,5 -25,-10 -5,-10" fill="#ffd700"/>
    <!-- 盾牌边缘装饰 -->
    <path d="M-60,20 L-60,15 M60,20 L60,15 M-50,15 L-45,10 M50,15 L45,10 M-40,10 L-35,5 M40,10 L35,5 M-30,5 L-25,0 M30,5 L25,0 M-20,0 L-15,-5 M20,0 L15,-5 M-10,-5 L-5,-10 M10,-5 L5,-10 M0,-70 M-60,-20 L-55,-25 M60,-20 L55,-25" stroke="#8b7300" stroke-width="2"/>
  </g>
  
  <!-- 金色皇冠 -->
  <g transform="translate(530, 250) scale(0.6)">
    <path d="M0,-40 C-20,-40 -35,-20 -35,0 C-35,20 -20,40 0,40 C20,40 35,20 35,0 C35,-20 20,-40 0,-40 Z M0,-30 L-25,-30 L-25,-10 C-25,-10 -15,-25 0,-25 C15,-25 25,-10 25,-10 L25,-30 L0,-30 Z" fill="#ffd700" stroke="#8b7300" stroke-width="2"/>
    <circle cx="0" cy="-25" r="3" fill="#8b7300"/>
    <circle cx="-15" cy="-15" r="2" fill="#8b7300"/>
    <circle cx="15" cy="-15" r="2" fill="#8b7300"/>
    <path d="M-15,-10 L-15,10 M15,-10 L15,10 M-5,15 L5,15" stroke="#8b7300" stroke-width="1"/>
  </g>
  
  <!-- 文字标签 -->
  <text x="530" y="280" font-family="Arial, sans-serif" font-size="16" fill="#ffd700" text-anchor="middle">黄金段位专区</text>
</svg>